<?xml version="1.0" standalone="no"?><!DOCTYPE svg PUBLIC "-//W3C//DTD SVG 1.1//EN" "http://www.w3.org/Graphics/SVG/1.1/DTD/svg11.dtd"><svg t="1609466472937" class="icon" viewBox="0 0 1225 1024" version="1.1" xmlns="http://www.w3.org/2000/svg" p-id="5692" xmlns:xlink="http://www.w3.org/1999/xlink" width="76.5625" height="64"><defs><style type="text/css"></style></defs><path d="M401.092212 76.601806l15.624258 15.987613 40.431484 43.140129c2.279226 2.34529 4.294194 4.459355 6.276129 6.441291l6.210064 6.144c1.882839 1.816774 3.567484 3.36929 5.086968 4.69058l2.114064 1.783742c1.057032 0.891871 1.783742 1.32129 0.396387 1.486452l5.483355-0.561548c6.672516-0.891871 18.266839-2.873806 39.969033-6.606452 18.299871-3.038968 33.659871-5.12 48.557419-6.408258 10.008774-0.858839 19.422968-1.32129 28.308645-1.32129 8.951742 0 18.498065 0.495484 28.638968 1.354322 11.792516 1.057032 23.816258 2.543484 37.590709 4.657548l10.66942 1.684646 30.653935 5.153032 11.098839 1.585548 6.573419 0.528516c-2.675613 0-2.873806-0.198194-2.213161-0.858838l0.627613-0.594581a129.156129 129.156129 0 0 0 9.579355-10.107871l3.038968-3.501419c2.77471-3.303226 5.813677-6.969806 9.315096-11.330065l34.023226-43.371355 10.834581-13.477161c29.200516-35.740903 45.716645-50.539355 62.992516-50.539355 42.182194 0 94.769548 162.485677 94.769548 254.183226a16.516129 16.516129 0 0 1-33.032258 0c0-73.265548-47.896774-221.150968-61.770322-221.150968-3.005935 0-20.050581 16.978581-43.470452 45.947871l-38.647742 49.185033c-3.633548 4.525419-6.837677 8.390194-9.810581 11.891612-16.218839 19.15871-24.576 26.756129-36.236387 26.756129l-5.912774-0.264258a238.625032 238.625032 0 0 1-16.97858-2.279225l-30.72-5.153033-19.819355-3.005935c-9.249032-1.32129-17.738323-2.312258-25.996387-3.005936a298.380387 298.380387 0 0 0-25.798194-1.222193c-7.861677 0-16.350968 0.396387-25.500903 1.189161-13.873548 1.189161-28.473806 3.171097-46.046968 6.044903l-31.413677 5.384258c-10.339097 1.618581-16.450065 2.312258-20.810323 2.312258-9.777548 0-17.209806-5.384258-31.744-19.852387l-14.369032-14.798451-33.296516-35.608774-6.903742-7.234065c-27.482839-28.506839-47.566452-44.75871-53.281032-44.75871-7.597419 0-30.72 73.463742-52.025807 203.709936a16.516129 16.516129 0 0 1-32.602839-5.318194l3.897807-23.320774c24.576-143.525161 46.575484-208.103226 80.730839-208.103226 17.11071 0 35.972129 13.60929 64.908387 42.512516zM210.529115 292.269419a16.516129 16.516129 0 1 1 24.377806 22.296775c-119.279484 130.378323-167.539613 268.254968-145.738322 414.72 21.20671 142.369032 139.131871 216.526452 359.952516 222.307096a16.516129 16.516129 0 0 1-0.858839 33.032258c-235.189677-6.177032-367.814194-89.616516-391.762581-250.483613-23.320774-156.804129 28.341677-304.458323 154.02942-441.872516zM999.405502 292.269419a16.516129 16.516129 0 1 0-24.377807 22.296775c119.246452 130.378323 167.506581 268.254968 145.705291 414.72-21.173677 142.369032-139.098839 216.526452-359.919484 222.307096a16.516129 16.516129 0 0 0 0.858839 33.032258c235.156645-6.177032 367.781161-89.616516 391.76258-250.483613 23.320774-156.804129-28.341677-304.458323-154.029419-441.872516z" fill="#333333" p-id="5693"></path><path d="M19.074147 463.541677l2.972903 0.462452 132.129033 33.032258a16.516129 16.516129 0 0 1-5.086968 32.503742l-2.972903-0.462452-132.129033-33.032258a16.516129 16.516129 0 0 1 5.086968-32.503742zM148.098147 546.221419a16.516129 16.516129 0 0 1 7.002839 32.140387l-2.906839 0.660646-132.129032 16.516129a16.516129 16.516129 0 0 1-7.002839-32.17342l2.906839-0.627613 132.129032-16.516129z" fill="#333333" p-id="5694"></path><path d="M1206.121373 463.541677l-2.972903 0.462452-132.129033 33.032258a16.516129 16.516129 0 0 0 5.086968 32.503742l2.972903-0.462452 132.129033-33.032258a16.516129 16.516129 0 0 0-5.086968-32.503742zM1077.097373 546.221419a16.516129 16.516129 0 0 0-7.002839 32.140387l2.906839 0.660646 132.129032 16.516129a16.516129 16.516129 0 0 0 7.002839-32.17342l-2.906839-0.627613-132.129032-16.516129z" fill="#333333" p-id="5695"></path><path d="M265.75905 661.702194a66.064516 66.064516 0 1 0 0-132.129033 66.064516 66.064516 0 0 0 0 132.129033zM926.404212 661.702194a66.064516 66.064516 0 1 0 0-132.129033 66.064516 66.064516 0 0 0 0 132.129033zM343.450921 142.269935c-11.230968 3.79871-18.167742 24.509935-25.038451 52.95071-6.837677 28.473806-12.387097 57.079742-2.510452 61.539097 9.843613 4.459355 81.19329-29.266581 84.166194-45.848774 3.005935-16.615226-45.35329-72.439742-56.617291-68.641033zM851.057631 142.269935c11.230968 3.79871 18.167742 24.509935 25.005419 52.95071 6.87071 28.473806 12.420129 57.079742 2.543484 61.539097s-81.19329-29.266581-84.199226-45.848774c-2.972903-16.615226 45.386323-72.439742 56.650323-68.641033z" fill="#F6B2B1" p-id="5696"></path><path d="M576.493502 534.561032c87.865806 0 175.797677 8.786581 263.762581 26.32671A66.064516 66.064516 0 0 1 893.371954 625.697032v145.077678a66.064516 66.064516 0 0 1-66.064517 66.064516H351.378663a66.064516 66.064516 0 0 1-66.064516-66.064516v-146.86142a66.064516 66.064516 0 0 1 51.662452-64.478967c74.289548-16.582194 154.128516-24.87329 239.516903-24.873291z m0 33.032258c-83.043097 0-160.47071 8.059871-232.315871 24.113549a33.032258 33.032258 0 0 0-25.6 28.407742l-0.231226 3.798709v146.86142a33.032258 33.032258 0 0 0 29.200516 32.801032l3.831742 0.231226H827.307437a33.032258 33.032258 0 0 0 32.801033-29.200516l0.231225-3.831742v-145.077678a33.032258 33.032258 0 0 0-26.557935-32.371613 1310.984258 1310.984258 0 0 0-257.288258-25.732129z" fill="#333333" p-id="5697"></path><path d="M1157.630018 625.829161a16.516129 16.516129 0 0 1-15.921548 17.11071l-257.156129 9.315097a16.516129 16.516129 0 0 1-1.189162-33.032258l257.156129-9.282065a16.516129 16.516129 0 0 1 17.11071 15.888516zM885.246018 765.291355l231.886452 18.365935a16.516129 16.516129 0 0 1-2.642581 32.933162l-231.853419-18.365936a16.516129 16.516129 0 1 1 2.64258-32.933161zM51.049373 625.730065a16.516129 16.516129 0 0 0 15.822452 17.209806l217.748645 9.315097a16.516129 16.516129 0 1 0 1.420387-33.032258l-217.748645-9.282065a16.516129 16.516129 0 0 0-17.209807 15.78942zM295.15776 765.291355l-203.709935 18.365935a16.516129 16.516129 0 1 0 2.972903 32.900129l203.709935-18.365935a16.516129 16.516129 0 0 0-2.972903-32.900129z" fill="#333333" p-id="5698"></path><path d="M354.84705 541.134452c18.266839 0 40.497548-9.843613 40.497549-28.07742s-22.23071-33.032258-40.497549-33.032258c-18.233806 0-42.479484 14.798452-42.479484 33.032258s24.245677 28.077419 42.479484 28.07742zM836.754663 541.134452c18.233806 0 40.464516-9.843613 40.464516-28.07742s-22.23071-33.032258-40.464516-33.032258-42.479484 14.798452-42.479484 33.032258 24.245677 28.077419 42.479484 28.07742z" fill="#333333" p-id="5699"></path></svg>