<?xml version="1.0" standalone="no"?><!DOCTYPE svg PUBLIC "-//W3C//DTD SVG 1.1//EN" "http://www.w3.org/Graphics/SVG/1.1/DTD/svg11.dtd"><svg t="1609466468034" class="icon" viewBox="0 0 1189 1024" version="1.1" xmlns="http://www.w3.org/2000/svg" p-id="5543" xmlns:xlink="http://www.w3.org/1999/xlink" width="74.3125" height="64"><defs><style type="text/css"></style></defs><path d="M399.758369 81.589677l15.624258 15.987613 40.431484 43.140129c2.279226 2.34529 4.294194 4.459355 6.276129 6.441291l6.210065 6.144c1.882839 1.816774 3.567484 3.36929 5.086967 4.69058l2.114065 1.783742c1.057032 0.858839 1.783742 1.32129 0.396387 1.486452l5.483355-0.561549c6.672516-0.891871 18.266839-2.873806 39.969032-6.606451 18.299871-3.038968 33.659871-5.12 48.557419-6.408258 10.008774-0.858839 19.422968-1.32129 28.308645-1.321291 8.951742 0 18.498065 0.462452 28.638968 1.354323 11.792516 1.024 23.816258 2.543484 37.59071 4.657548l10.669419 1.684646c5.582452 0.924903 26.194581 4.426323 30.653936 5.12l11.098838 1.651613 6.57342 0.495483c-2.675613 0-2.873806-0.198194-2.213161-0.858838l0.627612-0.594581a129.156129 129.156129 0 0 0 9.579355-10.107871l3.038968-3.501419c2.77471-3.303226 5.813677-7.002839 9.315097-11.330065l34.023226-43.371355 10.83458-13.477161c29.200516-35.740903 45.716645-50.539355 62.992516-50.539355 42.182194 0 94.769548 162.485677 94.769549 254.183226a16.516129 16.516129 0 0 1-33.032258 0c0-73.265548-47.896774-221.150968-61.770323-221.150968-3.005935 0-20.050581 16.978581-43.470452 45.947871l-38.647741 49.152c-3.633548 4.525419-6.837677 8.423226-9.810581 11.924645-16.218839 19.15871-24.576 26.756129-36.236387 26.756129l-5.912774-0.264258a238.625032 238.625032 0 0 1-16.978581-2.312258l-30.72-5.12-19.819355-3.005935c-9.249032-1.32129-17.738323-2.312258-25.996387-3.038968a298.380387 298.380387 0 0 0-25.798194-1.222193c-7.861677 0-16.350968 0.429419-25.500903 1.222193-13.873548 1.189161-28.473806 3.171097-46.046967 6.044903l-31.413678 5.351226c-10.339097 1.651613-16.450065 2.312258-20.810322 2.312258-9.777548 0-17.209806-5.351226-31.744-19.819355l-14.369033-14.798451-33.296516-35.608774-6.903742-7.234065c-27.482839-28.506839-47.566452-44.75871-53.281032-44.75871-7.597419 0-30.72 73.463742-52.025807 203.709936a16.516129 16.516129 0 0 1-32.602838-5.351226l3.897806-23.287742c24.576-143.525161 46.575484-208.103226 80.730839-208.103226 17.11071 0 35.972129 13.60929 64.908387 42.512516zM209.195272 297.224258a16.516129 16.516129 0 1 1 24.377807 22.296774c-119.279484 130.411355-167.539613 268.288-145.738323 414.72 21.20671 142.369032 139.131871 216.526452 359.952516 222.307097a16.516129 16.516129 0 0 1-0.858838 33.032258c-235.189677-6.144-367.814194-89.583484-391.762581-250.450581-23.320774-156.804129 28.341677-304.458323 154.029419-441.905548z" fill="#333333" p-id="5544"></path><path d="M535.917337 478.967742l52.851613-28.738065 68.046451 33.032258 45.78271 291.740904a33.032258 33.032258 0 0 1-39.704774 37.392516c-28.209548-6.210065-52.917677-9.282065-74.124387-9.282065-18.630194 0-37.987097 1.882839-58.169807 5.714581a33.032258 33.032258 0 0 1-38.812903-37.392516l44.131097-292.467613z" fill="#F6B2B1" p-id="5545"></path><path d="M998.071659 297.224258a16.516129 16.516129 0 1 0-24.377806 22.296774c119.246452 130.411355 167.506581 268.288 145.70529 414.72-21.173677 142.369032-139.098839 216.526452-359.919484 222.307097a16.516129 16.516129 0 0 0 0.858839 33.032258c235.156645-6.144 367.781161-89.583484 391.762581-250.450581 23.320774-156.804129-28.341677-304.458323-154.02942-441.905548z" fill="#333333" p-id="5546"></path><path d="M17.740305 369.432774l2.972903 0.462452 132.129032 33.032258a16.516129 16.516129 0 0 1-5.086968 32.503742l-2.972903-0.462452-132.129032-33.032258a16.516129 16.516129 0 0 1 5.086968-32.503742zM146.764305 452.112516a16.516129 16.516129 0 0 1 7.002838 32.140387l-2.906838 0.660645-132.129033 16.516129a16.516129 16.516129 0 0 1-7.002838-32.173419l2.906838-0.660645 132.129033-16.516129z" fill="#333333" p-id="5547"></path><path d="M1171.755272 369.432774l-2.972903 0.462452-132.129032 33.032258a16.516129 16.516129 0 0 0 5.086968 32.503742l2.972903-0.462452 132.129032-33.032258a16.516129 16.516129 0 0 0-5.086968-32.503742zM1042.731272 452.112516a16.516129 16.516129 0 0 0-7.002838 32.140387l2.906838 0.660645 132.129033 16.516129a16.516129 16.516129 0 0 0 7.002838-32.173419l-2.906838-0.660645-132.129033-16.516129z" fill="#333333" p-id="5548"></path><path d="M264.425208 551.077161a66.064516 66.064516 0 1 0 0-132.129032 66.064516 66.064516 0 0 0 0 132.129032z" fill="#F6B2B1" p-id="5549"></path><path d="M332.075272 438.205935c-11.924645 20.017548-23.287742 85.091097 14.831484 85.091097 25.434839 0 32.801032-26.92129 22.197678-80.697806M852.663659 441.04671c11.891613 20.050581 23.25471 85.091097-14.864516 85.091096-25.401806 0-32.801032-26.888258-22.197677-80.664774M858.345208 573.506065c11.891613 20.017548 37.128258 85.058065-14.864516 85.058064-34.617806 0-42.017032-26.888258-22.197678-80.664774M332.075272 570.632258c-11.924645 20.050581-37.16129 85.091097 14.831484 85.091097 34.650839 0 42.050065-26.888258 22.197678-80.697807" fill="#7DCEF4" p-id="5550"></path><path d="M925.070369 551.077161a66.064516 66.064516 0 1 0 0-132.129032 66.064516 66.064516 0 0 0 0 132.129032z" fill="#F6B2B1" p-id="5551"></path><path d="M594.747788 418.948129c18.233806 0 28.440774-7.399226 28.440775-16.516129s-10.206968-16.516129-28.440775-16.516129-27.152516 7.399226-27.152516 16.516129 8.91871 16.516129 27.152516 16.516129z" fill="#333333" p-id="5552"></path><path d="M611.329982 428.098065a66.064516 66.064516 0 0 1-131.963871 4.954838l-0.165161-4.954838v-20.579097a16.516129 16.516129 0 0 1 32.768-2.972903l0.264258 2.972903v20.612129a33.032258 33.032258 0 0 0 65.83329 3.831742l0.231226-3.831742v-20.612129a16.516129 16.516129 0 0 1 32.768-2.972903l0.264258 2.972903v20.612129z" fill="#333333" p-id="5553"></path><path d="M710.426756 428.098065a66.064516 66.064516 0 0 1-131.963871 4.954838l-0.165161-4.954838v-20.579097a16.516129 16.516129 0 0 1 32.768-2.972903l0.264258 2.972903v20.612129a33.032258 33.032258 0 0 0 65.83329 3.831742l0.231226-3.831742v-20.612129a16.516129 16.516129 0 0 1 32.768-2.972903l0.264258 2.972903v20.612129z" fill="#333333" p-id="5554"></path><path d="M592.765853 451.980387l68.046452 33.032258 45.815741 291.773936a33.032258 33.032258 0 0 1-39.704774 37.359484c-28.209548-6.177032-52.917677-9.249032-74.157419-9.249033-20.281806 0-42.974968 2.807742-68.079484 8.456258A33.032258 33.032258 0 0 1 484.750369 776.258065L528.683272 485.012645l64.082581-33.032258z m0.429419 36.897032l-34.353548 17.738323-41.422452 274.531097 11.561291-2.444387a329.100387 329.100387 0 0 1 63.78529-6.87071c20.413935 0 43.206194 2.510452 68.409806 7.399226l12.816516 2.64258-43.173161-274.696258-37.623742-18.299871z" fill="#333333" p-id="5555"></path><path d="M342.117079 147.257806c-11.230968 3.79871-18.167742 24.509935-25.038452 52.95071-6.837677 28.440774-12.387097 57.079742-2.510452 61.539097 9.843613 4.459355 81.19329-29.266581 84.166194-45.848774 3.005935-16.615226-45.35329-72.439742-56.61729-68.641033zM849.723788 147.257806c11.230968 3.79871 18.167742 24.509935 25.00542 52.95071 6.87071 28.440774 12.420129 57.079742 2.543484 61.539097s-81.19329-29.266581-84.199226-45.848774c-2.972903-16.615226 45.386323-72.439742 56.650322-68.641033z" fill="#F6B2B1" p-id="5556"></path><path d="M351.696434 352.883613c18.233806 0 40.464516 14.798452 40.464516 33.032258s-22.23071 28.077419-40.464516 28.077419c-18.266839 0-42.479484-9.843613-42.479484-28.077419s24.212645-33.032258 42.479484-33.032258z m0 16.516129c-11.891613 0-25.963355 10.107871-25.963355 16.516129 0 4.624516 12.155871 11.56129 25.963355 11.56129 13.278968 0 23.948387-6.474323 23.948387-11.56129 0-6.936774-12.58529-16.516129-23.948387-16.516129zM336.303401 431.104a8.258065 8.258065 0 0 0-11.330064 2.873806c-7.366194 12.387097-12.948645 35.54271-12.486194 54.470194 0.594581 25.699097 11.726452 43.107097 34.419613 43.107097 32.900129 0 41.785806-32.305548 30.323613-90.54142a8.258065 8.258065 0 0 0-16.185806 3.171097c9.711484 49.350194 3.765677 70.854194-14.137807 70.854194-11.693419 0-17.507097-9.116903-17.936516-26.987355-0.330323-15.921548 4.459355-36.005161 10.206968-45.617548a8.258065 8.258065 0 0 0-2.873807-11.330065z" fill="#333333" p-id="5557"></path><path d="M846.38753 431.104a8.258065 8.258065 0 0 1 11.297033 2.873806c7.366194 12.387097 12.948645 35.54271 12.519225 54.470194-0.594581 25.699097-11.759484 43.107097-34.452645 43.107097-32.900129 0-41.785806-32.305548-30.323613-90.54142a8.258065 8.258065 0 1 1 16.218839 3.171097c-9.711484 49.350194-3.79871 70.854194 14.104774 70.854194 11.693419 0 17.507097-9.116903 17.936516-26.987355 0.363355-15.921548-4.459355-36.005161-10.173935-45.617548a8.258065 8.258065 0 0 1 2.873806-11.330065zM846.38753 563.530323a8.258065 8.258065 0 0 1 11.297033 2.873806c8.588387 14.468129 16.516129 36.203355 17.70529 53.710452 1.816774 26.491871-11.065806 43.866839-39.63871 43.866838-42.248258 0-51.464258-33.49471-29.960258-91.829677a8.258065 8.258065 0 0 1 15.525161 5.747613c-18.167742 49.218065-12.58529 69.565935 14.435097 69.565935 18.035613 0 24.377806-8.522323 23.122581-26.19458-0.990968-14.63329-7.993806-34.023226-15.36-46.410323a8.258065 8.258065 0 0 1 2.873806-11.330064z" fill="#333333" p-id="5558"></path><path d="M336.270369 563.530323a8.258065 8.258065 0 0 0-11.297032 2.873806c-8.588387 14.468129-16.483097 36.203355-17.705291 53.710452-1.816774 26.491871 11.065806 43.866839 39.63871 43.866838 42.28129 0 51.464258-33.49471 29.960258-91.829677a8.258065 8.258065 0 1 0-15.525161 5.747613c18.167742 49.218065 12.618323 69.565935-14.435097 69.565935-18.035613 0-24.377806-8.522323-23.122581-26.19458 0.990968-14.63329 7.993806-34.023226 15.36-46.410323a8.258065 8.258065 0 0 0-2.873806-11.330064zM835.420821 352.883613c18.233806 0 40.464516 14.798452 40.464516 33.032258s-22.23071 28.077419-40.464516 28.077419S792.941337 404.116645 792.941337 385.882839s24.245677-33.032258 42.479484-33.032258z m0 16.516129c-11.891613 0-25.963355 10.107871-25.963355 16.516129 0 4.624516 12.155871 11.56129 25.963355 11.56129 13.312 0 23.948387-6.474323 23.948387-11.56129 0-6.936774-12.552258-16.516129-23.948387-16.516129z" fill="#333333" p-id="5559"></path></svg>