<?xml version="1.0" standalone="no"?><!DOCTYPE svg PUBLIC "-//W3C//DTD SVG 1.1//EN" "http://www.w3.org/Graphics/SVG/1.1/DTD/svg11.dtd"><svg t="1609466500887" class="icon" viewBox="0 0 1024 1024" version="1.1" xmlns="http://www.w3.org/2000/svg" p-id="6124" xmlns:xlink="http://www.w3.org/1999/xlink" width="64" height="64"><defs><style type="text/css"></style></defs><path d="M359.68 50.7648c140.7488 0 254.848 114.1248 254.848 254.8736 0 5.5552-0.1792 11.1104-0.5376 16.6656-10.7776 164.3008-0.5888 283.5712 30.5408 357.8112 46.2848 110.336 165.6576 185.088 358.144 224.256-118.7328 60.3136-254.464 80.9984-407.1936 62.08-229.12-28.3904-371.1232 85.9648-520.704-177.0496C11.6992 678.4768-11.4688 539.2128 5.248 371.584A356.1728 356.1728 0 0 1 359.68 50.7648z" fill="#FFFFFF" p-id="6125"></path><path d="M359.68 50.7648c140.7488 0 254.848 114.1248 254.848 254.8736 0 5.5552-0.1792 11.1104-0.5376 16.6656-10.7776 164.3008-0.5888 283.5712 30.5408 357.8112 46.2848 110.336 165.6576 185.088 358.144 224.256-115.2512 58.5216-246.5024 79.744-393.7536 63.6416l-13.44-1.5616c-229.12-28.3904-371.1232 85.9648-520.704-177.0496C11.6992 678.4768-11.4688 539.2128 5.248 371.584A356.1728 356.1728 0 0 1 359.68 50.7648z m0 21.3504a334.848 334.848 0 0 0-333.184 301.568c-16.3328 163.5328 6.144 298.4192 66.816 405.1712a591.36 591.36 0 0 0 34.4064 53.9648c73.2928 101.4784 126.3616 118.8096 278.912 111.36l36.4288-1.9712c63.1296-3.2512 101.888-3.072 148.0448 2.2272l6.9888 0.8448c121.6512 15.0784 231.7568 4.3776 330.6496-31.9232l7.168-2.7136-9.8048-2.6624c-153.8048-42.88-253.824-113.664-298.4704-213.2224l-2.7648-6.4c-32.7168-77.952-43.136-200.1152-32.1792-367.4368a233.5232 233.5232 0 0 0-233.0368-248.8064z" fill="#000000" p-id="6126"></path><path d="M181.3248 330.6752m-32 0a32 32 0 1 0 64 0 32 32 0 1 0-64 0Z" fill="#000000" p-id="6127"></path><path d="M416 330.6752m-32 0a32 32 0 1 0 64 0 32 32 0 1 0-64 0Z" fill="#000000" p-id="6128"></path><path d="M268.8 469.3248a51.2 29.8752 90 1 0 59.7504 0 51.2 29.8752 90 1 0-59.7504 0Z" fill="#FFA7A7" p-id="6129"></path><path d="M128 426.6752m0-42.6752a42.6752 42.6752 0 1 0 0 85.3504 42.6752 42.6752 0 1 0 0-85.3504Z" fill="#FFDDDD" p-id="6130"></path><path d="M469.3248 426.6752m0-42.6752a42.6752 42.6752 0 1 0 0 85.3504 42.6752 42.6752 0 1 0 0-85.3504Z" fill="#FFDDDD" p-id="6131"></path><path d="M147.328 398.4896C193.2032 388.8384 242.3552 384 294.7328 384c54.3232 0 108.672 5.1968 163.0464 15.5904a51.2 51.2 0 0 1 41.5744 50.2784v78.1568a51.2 51.2 0 0 1-51.2 51.2H157.8496a51.2 51.2 0 0 1-51.2-51.2v-79.4368a51.2 51.2 0 0 1 40.6784-50.0992z" fill="#FFFFFF" p-id="6132"></path><path d="M294.7328 384c56.7296 0 113.5104 5.6832 170.3168 17.024 19.968 3.968 34.304 21.504 34.304 41.8304v93.696c0 23.552-19.0976 42.6752-42.6496 42.6752H149.3248c-23.552 0-42.6496-19.0976-42.6496-42.6752v-94.848c0-19.968 13.8496-37.2736 33.3568-41.6256C188.0064 389.3504 239.5648 384 294.7328 384z m0 21.3248c-53.632 0-103.6544 5.1968-150.0416 15.5648a21.3248 21.3248 0 0 0-16.5376 18.3552L128 441.7024v94.848c0 10.9312 8.2432 19.968 18.8416 21.1968l2.4832 0.128H456.704c10.9312 0 19.968-8.2176 21.1968-18.8416l0.128-2.4832v-93.696c0-10.1632-7.168-18.944-17.152-20.9152a846.6944 846.6944 0 0 0-166.144-16.6144z" fill="#000000" p-id="6133"></path><path d="M192 618.6752v-53.3504a32 32 0 0 0-64 0v53.3504M480 629.3248V576a32 32 0 1 0-64 0v53.3248" fill="#FFFFFF" p-id="6134"></path><path d="M202.6752 565.3248a42.6752 42.6752 0 0 0-85.248-3.1744l-0.1024 3.1744v53.3504a10.6752 10.6752 0 0 0 21.1712 1.92l0.1792-1.92v-53.3504a21.3248 21.3248 0 0 1 42.496-2.4832l0.1536 2.4832v53.3504a10.6752 10.6752 0 0 0 21.1712 1.92l0.1792-1.92v-53.3504zM490.6752 576a42.6752 42.6752 0 0 0-85.248-3.1744l-0.1024 3.1744v53.3248a10.6752 10.6752 0 0 0 21.1712 1.92l0.1792-1.92V576a21.3248 21.3248 0 0 1 42.496-2.4832l0.1536 2.4832v53.3248a10.6752 10.6752 0 0 0 21.1712 1.92l0.1792-1.92V576z" fill="#000000" p-id="6135"></path></svg>