<?xml version="1.0" standalone="no"?><!DOCTYPE svg PUBLIC "-//W3C//DTD SVG 1.1//EN" "http://www.w3.org/Graphics/SVG/1.1/DTD/svg11.dtd"><svg t="1609466497897" class="icon" viewBox="0 0 1024 1024" version="1.1" xmlns="http://www.w3.org/2000/svg" p-id="5981" xmlns:xlink="http://www.w3.org/1999/xlink" width="64" height="64"><defs><style type="text/css"></style></defs><path d="M359.68 50.7648c140.7488 0 254.848 114.1248 254.848 254.8736 0 5.5552-0.1792 11.1104-0.5376 16.6656-10.7776 164.3008-0.5888 283.5712 30.5408 357.8112 46.2848 110.336 165.6576 185.088 358.144 224.256-118.7328 60.3136-254.464 80.9984-407.1936 62.08-229.12-28.3904-371.1232 85.9648-520.704-177.0496C11.6992 678.4768-11.4688 539.2128 5.248 371.584A356.1728 356.1728 0 0 1 359.68 50.7648z" fill="#FFFFFF" p-id="5982"></path><path d="M359.68 50.7648c140.7488 0 254.848 114.1248 254.848 254.8736 0 5.5552-0.1792 11.1104-0.5376 16.6656-10.7776 164.3008-0.5888 283.5712 30.5408 357.8112 46.2848 110.336 165.6576 185.088 358.144 224.256-115.2512 58.5216-246.5024 79.744-393.7536 63.6416l-13.44-1.5616c-229.12-28.3904-371.1232 85.9648-520.704-177.0496C11.6992 678.4768-11.4688 539.2128 5.248 371.584A356.1728 356.1728 0 0 1 359.68 50.7648z m0 21.3504a334.848 334.848 0 0 0-333.184 301.568c-16.3328 163.5328 6.144 298.4192 66.816 405.1712a591.36 591.36 0 0 0 34.4064 53.9648c73.2928 101.4784 126.3616 118.8096 278.912 111.36l36.4288-1.9712c63.1296-3.2512 101.888-3.072 148.0448 2.2272l6.9888 0.8448c121.6512 15.0784 231.7568 4.3776 330.6496-31.9232l7.168-2.7136-9.8048-2.6624c-153.8048-42.88-253.824-113.664-298.4704-213.2224l-2.7648-6.4c-32.7168-77.952-43.136-200.1152-32.1792-367.4368a233.5232 233.5232 0 0 0-233.0368-248.8064z" fill="#000000" p-id="5983"></path><path d="M128 426.6752m0-42.6752a42.6752 42.6752 0 1 0 0 85.3504 42.6752 42.6752 0 1 0 0-85.3504Z" fill="#FFDDDD" p-id="5984"></path><path d="M469.3248 426.6752m0-42.6752a42.6752 42.6752 0 1 0 0 85.3504 42.6752 42.6752 0 1 0 0-85.3504Z" fill="#FFDDDD" p-id="5985"></path><path d="M181.3248 309.3248m-32 0a32 32 0 1 0 64 0 32 32 0 1 0-64 0Z" fill="#000000" p-id="5986"></path><path d="M412.288 288.3328c14.4128-2.56 29.184 3.9424 44.3648 18.176a10.6752 10.6752 0 1 1-14.592 15.5648c-10.752-10.0864-19.456-13.9008-26.0608-12.7488-6.6048 1.1776-13.4912 7.7312-20.1472 20.8896a10.6752 10.6752 0 1 1-19.0208-9.6512c9.3952-18.56 21.0688-29.696 35.456-32.256z" fill="#000000" p-id="5987"></path><path d="M249.2928 433.5616c-11.52 61.184 3.712 91.776 45.696 91.776s58.8032-30.592 50.432-91.776" fill="#FFA7A7" p-id="5988"></path><path d="M294.9888 451.1232c22.5024 0 44.9536-4.9152 67.2512-14.6944a10.6752 10.6752 0 1 0-8.5504-19.5328c-19.6608 8.6272-39.2192 12.9024-58.7008 12.9024-19.4816 0-39.0144-4.2752-58.7008-12.9024a10.6752 10.6752 0 0 0-8.5504 19.5328c22.3232 9.7792 44.7488 14.6944 67.2512 14.6944zM490.6752 575.9488a42.6752 42.6752 0 0 0-73.728-42.8288l-1.6128 2.7648-25.0368 47.104a10.6752 10.6752 0 0 0 17.792 11.6224l1.024-1.6128 25.0624-47.104a21.3248 21.3248 0 0 1 38.7072 17.7664l-1.024 2.2784-25.0624 47.104a10.6752 10.6752 0 0 0 17.792 11.5968l1.0496-1.6128 25.0368-47.104zM106.6496 575.9488a42.6752 42.6752 0 0 1 73.728-42.8288l1.6128 2.7648 25.0368 47.104a10.6752 10.6752 0 0 1-17.7664 11.6224l-1.0496-1.6128-25.0368-47.104a21.3248 21.3248 0 0 0-38.7328 17.7664l1.024 2.2784 25.0624 47.104a10.6752 10.6752 0 0 1-17.792 11.5968l-1.024-1.6128-25.0624-47.104z" fill="#000000" p-id="5989"></path></svg>