<?xml version="1.0" standalone="no"?><!DOCTYPE svg PUBLIC "-//W3C//DTD SVG 1.1//EN" "http://www.w3.org/Graphics/SVG/1.1/DTD/svg11.dtd"><svg t="1609466507500" class="icon" viewBox="0 0 1024 1024" version="1.1" xmlns="http://www.w3.org/2000/svg" p-id="6415" xmlns:xlink="http://www.w3.org/1999/xlink" width="64" height="64"><defs><style type="text/css"></style></defs><path d="M359.68 50.7648c140.7488 0 254.848 114.1248 254.848 254.8736 0 5.5552-0.1792 11.1104-0.5376 16.6656-10.7776 164.3008-0.5888 283.5712 30.5408 357.8112 46.2848 110.336 165.6576 185.088 358.144 224.256-118.7328 60.3136-254.464 80.9984-407.1936 62.08-229.12-28.3904-371.1232 85.9648-520.704-177.0496C11.6992 678.4768-11.4688 539.2128 5.248 371.584A356.1728 356.1728 0 0 1 359.68 50.7648z" fill="#FFFFFF" p-id="6416"></path><path d="M359.68 50.7648c140.7488 0 254.848 114.1248 254.848 254.8736 0 5.5552-0.1792 11.1104-0.5376 16.6656-10.7776 164.3008-0.5888 283.5712 30.5408 357.8112 46.2848 110.336 165.6576 185.088 358.144 224.256-115.2512 58.5216-246.5024 79.744-393.7536 63.6416l-13.44-1.5616c-229.12-28.3904-371.1232 85.9648-520.704-177.0496C11.6992 678.4768-11.4688 539.2128 5.248 371.584A356.1728 356.1728 0 0 1 359.68 50.7648z m0 21.3504a334.848 334.848 0 0 0-333.184 301.568c-16.3328 163.5328 6.144 298.4192 66.816 405.1712a591.36 591.36 0 0 0 34.4064 53.9648c73.2928 101.4784 126.3616 118.8096 278.912 111.36l36.4288-1.9712c63.1296-3.2512 101.888-3.072 148.0448 2.2272l6.9888 0.8448c121.6512 15.0784 231.7568 4.3776 330.6496-31.9232l7.168-2.7136-9.8048-2.6624c-153.8048-42.88-253.824-113.664-298.4704-213.2224l-2.7648-6.4c-32.7168-77.952-43.136-200.1152-32.1792-367.4368a233.5232 233.5232 0 0 0-233.0368-248.8064z" fill="#000000" p-id="6417"></path><path d="M128 426.6752m0-42.6752a42.6752 42.6752 0 1 0 0 85.3504 42.6752 42.6752 0 1 0 0-85.3504Z" fill="#FFDDDD" p-id="6418"></path><path d="M469.3248 426.6752m0-42.6752a42.6752 42.6752 0 1 0 0 85.3504 42.6752 42.6752 0 1 0 0-85.3504Z" fill="#FFDDDD" p-id="6419"></path><path d="M192 320m-25.6 0a25.6 25.6 0 1 0 51.2 0 25.6 25.6 0 1 0-51.2 0Z" fill="#000000" p-id="6420"></path><path d="M426.6752 320m-25.6 0a25.6 25.6 0 1 0 51.2 0 25.6 25.6 0 1 0-51.2 0Z" fill="#000000" p-id="6421"></path><path d="M294.9888 437.3504c21.6832 0 43.392 2.1504 65.0496 6.4256a10.6752 10.6752 0 0 1-4.1472 20.9408 312.4992 312.4992 0 0 0-60.9024-6.0416c-20.3008 0-40.576 2.0224-60.9024 6.0416a10.6752 10.6752 0 0 1-4.1472-20.9408 333.824 333.824 0 0 1 65.0496-6.4256zM520.3968 202.6752a10.6752 10.6752 0 0 1 10.5984 8.6272l0.2048 1.92 4.2752 369.2544a10.6752 10.6752 0 0 1-21.1456 2.1504l-0.1792-1.8944-4.3008-369.28a10.6752 10.6752 0 0 1 10.5472-10.7776zM565.12 202.6752a11.4432 11.4432 0 0 1 11.52 8.6272l0.2304 1.92 2.304 221.6448c0.0768 5.888-5.0688 10.7008-11.52 10.752a11.4432 11.4432 0 0 1-11.52-8.6272l-0.2048-1.92-2.3296-221.6448c-0.0768-5.888 5.0944-10.7008 11.52-10.752zM482.1248 202.6752c6.2976 0 11.52 3.7632 12.5952 8.7296l0.2048 1.92v157.6448c0 5.888-5.7344 10.6496-12.8 10.6496-6.272 0-11.52-3.7632-12.5952-8.7296l-0.2048-1.92V213.3248c0-5.888 5.7344-10.6496 12.8-10.6496zM233.3184 590.1568a42.6752 42.6752 0 0 1-16.0512 83.7632l-3.1488-0.6144-51.968-12.0064a10.6752 10.6752 0 0 1 2.8928-21.0432l1.92 0.256 51.968 12.0064a21.3248 21.3248 0 0 0 11.9808-40.8832l-2.3808-0.6912-51.968-12.0064a10.6752 10.6752 0 0 1 2.8928-21.0432l1.8944 0.256 51.968 12.032z" fill="#000000" p-id="6422"></path><path d="M300.032 590.1568a42.6752 42.6752 0 0 0 16.0512 83.7632l3.1232-0.6144 51.968-12.0064a10.6752 10.6752 0 0 0-2.8928-21.0432l-1.92 0.256-51.968 12.0064a21.3248 21.3248 0 0 1-11.9808-40.8832l2.4064-0.6912 51.968-12.0064a10.6752 10.6752 0 0 0-2.8928-21.0432l-1.92 0.256-51.968 12.032z" fill="#000000" p-id="6423"></path></svg>