<?xml version="1.0" standalone="no"?><!DOCTYPE svg PUBLIC "-//W3C//DTD SVG 1.1//EN" "http://www.w3.org/Graphics/SVG/1.1/DTD/svg11.dtd"><svg t="1609466510236" class="icon" viewBox="0 0 1024 1024" version="1.1" xmlns="http://www.w3.org/2000/svg" p-id="6556" xmlns:xlink="http://www.w3.org/1999/xlink" width="64" height="64"><defs><style type="text/css"></style></defs><path d="M359.68 50.7648c140.7488 0 254.848 114.1248 254.848 254.8736 0 5.5552-0.1792 11.1104-0.5376 16.6656-10.7776 164.3008-0.5888 283.5712 30.5408 357.8112 46.2848 110.336 165.6576 185.088 358.144 224.256-118.7328 60.3136-254.464 80.9984-407.1936 62.08-229.12-28.3904-371.1232 85.9648-520.704-177.0496C11.6992 678.4768-11.4688 539.2128 5.248 371.584A356.1728 356.1728 0 0 1 359.68 50.7648z" fill="#FFFFFF" p-id="6557"></path><path d="M359.68 50.7648c140.7488 0 254.848 114.1248 254.848 254.8736 0 5.5552-0.1792 11.1104-0.5376 16.6656-10.7776 164.3008-0.5888 283.5712 30.5408 357.8112 46.2848 110.336 165.6576 185.088 358.144 224.256-115.2512 58.5216-246.5024 79.744-393.7536 63.6416l-13.44-1.5616c-229.12-28.3904-371.1232 85.9648-520.704-177.0496C11.6992 678.4768-11.4688 539.2128 5.248 371.584A356.1728 356.1728 0 0 1 359.68 50.7648z m0 21.3504a334.848 334.848 0 0 0-333.184 301.568c-16.3328 163.5328 6.144 298.4192 66.816 405.1712a591.36 591.36 0 0 0 34.4064 53.9648c73.2928 101.4784 126.3616 118.8096 278.912 111.36l36.4288-1.9712c63.1296-3.2512 101.888-3.072 148.0448 2.2272l6.9888 0.8448c121.6512 15.0784 231.7568 4.3776 330.6496-31.9232l7.168-2.7136-9.8048-2.6624c-153.8048-42.88-253.824-113.664-298.4704-213.2224l-2.7648-6.4c-32.7168-77.952-43.136-200.1152-32.1792-367.4368a233.5232 233.5232 0 0 0-233.0368-248.8064z" fill="#000000" p-id="6558"></path><path d="M128 426.6752m0-42.6752a42.6752 42.6752 0 1 0 0 85.3504 42.6752 42.6752 0 1 0 0-85.3504Z" fill="#FFDDDD" p-id="6559"></path><path d="M469.3248 426.6752m0-42.6752a42.6752 42.6752 0 1 0 0 85.3504 42.6752 42.6752 0 1 0 0-85.3504Z" fill="#FFDDDD" p-id="6560"></path><path d="M181.3248 309.3248m-32 0a32 32 0 1 0 64 0 32 32 0 1 0-64 0Z" fill="#000000" p-id="6561"></path><path d="M416 309.3248m-32 0a32 32 0 1 0 64 0 32 32 0 1 0-64 0Z" fill="#000000" p-id="6562"></path><path d="M297.6512 437.3504c15.232 0 30.464 2.2272 45.6448 6.656a10.6752 10.6752 0 0 1-5.9904 20.48 140.6208 140.6208 0 0 0-39.68-5.8112c-13.184 0-26.3936 1.9456-39.6544 5.8112a10.6752 10.6752 0 1 1-5.9904-20.48 161.9456 161.9456 0 0 1 45.6704-6.656zM483.6352 523.7504a42.6752 42.6752 0 0 0-49.1008 69.7344l2.6112 1.8176 44.7232 29.056a10.6752 10.6752 0 0 0 13.1328-16.7168l-1.5104-1.1776-44.7232-29.056a21.3248 21.3248 0 0 1 21.0688-37.0176l2.176 1.2544 44.7232 29.0304a10.6752 10.6752 0 0 0 13.1328-16.6912l-1.536-1.2032-44.6976-29.0304zM177.7152 692.2496a42.6752 42.6752 0 0 0 49.0752-69.7344l-2.6112-1.8176L179.456 591.616a10.6752 10.6752 0 0 0-13.1328 16.7168l1.536 1.1776 44.6976 29.056a21.3248 21.3248 0 0 1-21.0688 37.0176l-2.1504-1.2544-44.7488-29.0304a10.6752 10.6752 0 0 0-13.1328 16.6912l1.536 1.2032 44.7232 29.0304z" fill="#000000" p-id="6563"></path><path d="M670.3872 96c31.104 0 54.9632 26.624 57.2672 56.4736 1.3568 17.92-11.264 33.792-36.096 48.6656l-3.584 2.048v31.488a10.6752 10.6752 0 0 1-8.7552 10.496l-1.92 0.1536a10.6752 10.6752 0 0 1-10.496-8.7296l-0.1792-1.92V190.464l5.7088-2.9952c24.192-12.7744 34.7392-24.32 34.048-33.3568-1.5104-19.5072-16.9984-36.7872-35.9936-36.7872-22.3232 0-42.1376 19.1232-41.0112 40.0896a10.6752 10.6752 0 1 1-21.2992 1.152c-1.792-33.6384 28.16-62.5664 62.3104-62.5664z" fill="#000000" p-id="6564"></path><path d="M678.6048 277.3248a10.6752 10.6752 0 1 0 0-21.3248 10.6752 10.6752 0 0 0 0 21.3248z" fill="#000000" p-id="6565"></path><path d="M853.76 133.7856c25.472 17.8176 29.7472 53.3248 14.4896 79.104-9.1648 15.4368-28.5952 21.248-57.472 19.1488l-4.1216-0.384-18.048 25.7792a10.6752 10.6752 0 0 1-13.184 3.584l-1.664-0.9472a10.6752 10.6752 0 0 1-3.584-13.184l0.9472-1.6896 25.344-36.1984 6.4 0.8192c27.136 3.4048 42.4192-0.0256 47.0272-7.808 9.984-16.8448 7.168-39.8592-8.3712-50.7648-18.304-12.8-45.4912-8.5248-56.6016 9.3184a10.6752 10.6752 0 1 1-18.0992-11.264c17.8176-28.6208 58.9568-35.0976 86.9376-15.5136z" fill="#000000" p-id="6566"></path><path d="M756.48 287.0272a10.6752 10.6752 0 1 0 12.2112-17.4848 10.6752 10.6752 0 0 0-12.2368 17.4848z" fill="#000000" p-id="6567"></path></svg>