<?xml version="1.0" standalone="no"?><!DOCTYPE svg PUBLIC "-//W3C//DTD SVG 1.1//EN" "http://www.w3.org/Graphics/SVG/1.1/DTD/svg11.dtd"><svg t="1609466504093" class="icon" viewBox="0 0 1024 1024" version="1.1" xmlns="http://www.w3.org/2000/svg" p-id="6268" xmlns:xlink="http://www.w3.org/1999/xlink" width="64" height="64"><defs><style type="text/css"></style></defs><path d="M359.68 50.7648c140.7488 0 254.848 114.1248 254.848 254.8736 0 5.5552-0.1792 11.1104-0.5376 16.6656-10.7776 164.3008-0.5888 283.5712 30.5408 357.8112 46.2848 110.336 165.6576 185.088 358.144 224.256-118.7328 60.3136-254.464 80.9984-407.1936 62.08-229.12-28.3904-371.1232 85.9648-520.704-177.0496C11.6992 678.4768-11.4688 539.2128 5.248 371.584A356.1728 356.1728 0 0 1 359.68 50.7648z" fill="#FFFFFF" p-id="6269"></path><path d="M359.68 50.7648c140.7488 0 254.848 114.1248 254.848 254.8736 0 5.5552-0.1792 11.1104-0.5376 16.6656-10.7776 164.3008-0.5888 283.5712 30.5408 357.8112 46.2848 110.336 165.6576 185.088 358.144 224.256-115.2512 58.5216-246.5024 79.744-393.7536 63.6416l-13.44-1.5616c-229.12-28.3904-371.1232 85.9648-520.704-177.0496C11.6992 678.4768-11.4688 539.2128 5.248 371.584A356.1728 356.1728 0 0 1 359.68 50.7648z m0 21.3504a334.848 334.848 0 0 0-333.184 301.568c-16.3328 163.5328 6.144 298.4192 66.816 405.1712a591.36 591.36 0 0 0 34.4064 53.9648c73.2928 101.4784 126.3616 118.8096 278.912 111.36l36.4288-1.9712c63.1296-3.2512 101.888-3.072 148.0448 2.2272l6.9888 0.8448c121.6512 15.0784 231.7568 4.3776 330.6496-31.9232l7.168-2.7136-9.8048-2.6624c-153.8048-42.88-253.824-113.664-298.4704-213.2224l-2.7648-6.4c-32.7168-77.952-43.136-200.1152-32.1792-367.4368a233.5232 233.5232 0 0 0-233.0368-248.8064z" fill="#000000" p-id="6270"></path><path d="M128 426.6752m0-42.6752a42.6752 42.6752 0 1 0 0 85.3504 42.6752 42.6752 0 1 0 0-85.3504Z" fill="#FFDDDD" p-id="6271"></path><path d="M469.3248 426.6752m0-42.6752a42.6752 42.6752 0 1 0 0 85.3504 42.6752 42.6752 0 1 0 0-85.3504Z" fill="#FFDDDD" p-id="6272"></path><path d="M181.3248 330.6752m-25.6 0a25.6 25.6 0 1 0 51.2 0 25.6 25.6 0 1 0-51.2 0Z" fill="#FFFFFF" p-id="6273"></path><path d="M416 330.6752m-25.6 0a25.6 25.6 0 1 0 51.2 0 25.6 25.6 0 1 0-51.2 0Z" fill="#FFFFFF" p-id="6274"></path><path d="M249.1648 454.2464l-9.2416 193.8944a25.6 25.6 0 0 0 25.5744 26.8288h55.8848a25.6 25.6 0 0 0 25.6-26.0864l-3.5328-194.6368" fill="#FFA7A7" p-id="6275"></path><path d="M238.5152 453.7344l21.2992 1.024-9.472 198.3488c-0.256 5.248 3.328 9.7792 8.2432 10.9056l1.92 0.256h65.2288a10.6752 10.6752 0 0 0 10.496-8.704l0.1536-2.1248-3.584-198.9888 21.3248-0.384 3.584 199.552a32 32 0 0 1-28.928 31.8464l-3.072 0.1536-66.2272-0.0256a32 32 0 0 1-30.4384-30.4128v-3.072l9.472-198.3744z" fill="#000000" p-id="6276"></path><path d="M357.9648 443.5712c5.888 0 10.6752 5.7344 10.6752 12.8 0 6.2976-3.7888 11.52-8.7552 12.5952l-1.92 0.2048h-125.952c-5.888 0-10.6752-5.7088-10.6752-12.8 0-6.272 3.7888-11.52 8.7552-12.5696l1.92-0.2304h125.952z" fill="#000000" p-id="6277"></path><path d="M554.6752 213.3248c11.9808 9.1136 23.424 38.8096 0 42.4448-15.616 2.432-22.6816-7.8336-21.1456-30.848M77.6192 256c-11.9808 13.6192-23.4496 58.0096 0 63.488 15.616 3.6352 22.656-11.7504 21.12-46.1312M579.328 405.9136c10.496 14.7968 17.2288 60.16-6.656 63.1296-15.8976 1.9968-21.2992-14.0544-16.1792-48.0768" fill="#7DCEF4" p-id="6278"></path><path d="M550.4 210.0992c1.792-2.3296 5.1456-2.816 7.5008-1.024 7.296 5.5808 13.7216 16.6144 15.3088 26.7008 2.0736 13.0048-3.9168 23.1168-17.7152 25.2672-19.712 3.072-29.0048-10.496-27.264-36.48a5.3248 5.3248 0 1 1 10.624 0.7168c-1.3312 20.0448 3.456 27.0336 15.0016 25.216 7.4752-1.152 10.0352-5.4784 8.832-13.056-1.1776-7.424-6.1696-16-11.264-19.8656a5.3248 5.3248 0 0 1-1.024-7.4752zM81.152 252.0064a5.3248 5.3248 0 0 0-7.5264 0.4608c-6.9888 7.936-13.0816 23.6544-14.592 37.76-1.8688 17.7664 3.4304 31.2064 17.408 34.432 20.6592 4.8384 29.312-14.08 27.648-51.5584a5.3248 5.3248 0 0 0-10.6752 0.4864c1.408 31.3344-3.9936 43.1616-14.592 40.704-7.3472-1.7152-10.5472-9.856-9.1648-22.9376 1.28-12.032 6.5792-25.6768 11.9808-31.8208a5.3248 5.3248 0 0 0-0.512-7.5264zM576.256 401.5616a5.3248 5.3248 0 0 1 7.424 1.28c6.1184 8.6272 10.5472 24.8832 10.5472 39.0656 0 17.8432-6.656 30.6432-20.864 32.4352-21.0688 2.6112-27.7248-17.1008-22.144-54.1696a5.3248 5.3248 0 0 1 10.5472 1.5872c-4.6592 31.0016-0.512 43.3408 10.24 41.984 7.5264-0.9216 11.5712-8.704 11.5456-21.8368 0-12.1088-3.84-26.24-8.576-32.9216a5.3248 5.3248 0 0 1 1.28-7.424z" fill="#000000" p-id="6279"></path><path d="M192 618.6752v53.3248a32 32 0 0 1-64 0v-53.3248M490.6752 618.6752v53.3248a32 32 0 1 1-64 0v-53.3248" fill="#FFFFFF" p-id="6280"></path></svg>