<?xml version="1.0" standalone="no"?><!DOCTYPE svg PUBLIC "-//W3C//DTD SVG 1.1//EN" "http://www.w3.org/Graphics/SVG/1.1/DTD/svg11.dtd"><svg t="1609466457242" class="icon" viewBox="0 0 1258 1024" version="1.1" xmlns="http://www.w3.org/2000/svg" p-id="5246" xmlns:xlink="http://www.w3.org/1999/xlink" width="78.625" height="64"><defs><style type="text/css"></style></defs><path d="M841.9328 170.686171c37.361371 0 83.938743 143.915886 83.938743 225.133715a14.628571 14.628571 0 0 1-29.257143 0c0-64.892343-42.422857-195.876571-54.710857-195.876572-2.837943 0-19.690057 16.969143-42.422857 45.641143l-30.339657 38.619429c-3.218286 3.978971-6.026971 7.431314-8.660115 10.532571l-6.641371 7.636114c-10.269257 11.381029-16.852114 16.062171-25.453714 16.062172-3.130514 0-6.875429-0.321829-11.819886-0.994743l-35.693714-5.822171c-15.652571-2.545371-28.379429-4.271543-40.5504-5.354058a264.279771 264.279771 0 0 0-22.849829-1.082514c-6.9632 0-14.482286 0.380343-22.586514 1.082514a479.524571 479.524571 0 0 0-31.744 3.920458l-36.864 6.173257c-9.157486 1.462857-14.570057 2.048-18.432 2.048-7.899429 0-14.043429-3.920457-24.751543-14.248229l-7.021714-7.021714a729.790171 729.790171 0 0 1-12.6976-13.253486l-25.863315-27.677257-6.114743-6.407314c-24.341943-25.248914-42.130286-39.643429-47.191771-39.643429-6.729143 0-27.209143 65.067886-46.08 180.4288a14.628571 14.628571 0 1 1-28.8768-4.739657l3.452343-20.626286c21.767314-127.122286 41.252571-184.32 71.504457-184.32 16.1792 0 34.084571 13.7216 62.756571 42.949486l18.285715 19.163429 26.097371 27.911314c2.018743 2.077257 3.803429 3.949714 5.558857 5.705143l5.500343 5.441828c2.486857 2.399086 4.622629 4.3008 6.378057 5.7344 0.936229 0.760686 1.579886 1.170286 0.351086 1.316572l3.218286-0.292572c5.558857-0.672914 15.886629-2.428343 37.010285-6.085485 16.237714-2.6624 29.842286-4.5056 43.008-5.646629 8.894171-0.760686 17.232457-1.170286 25.102629-1.170286 7.928686 0 16.384 0.4096 25.365943 1.199543 10.4448 0.906971 21.0944 2.2528 33.294628 4.125257l36.571429 6.026972c4.037486 0.643657 7.285029 1.111771 9.859657 1.462857l5.822172 0.438857c-2.369829 0-2.545371-0.175543-1.960229-0.760686l0.555886-0.526628a114.395429 114.395429 0 0 0 8.484571-8.952686l2.691657-3.101257c2.4576-2.925714 5.149257-6.202514 8.250515-10.0352l30.134857-38.414629 9.596343-11.936914c25.863314-31.656229 40.491886-44.763429 55.793371-44.763429zM272.910629 409.541486a14.628571 14.628571 0 0 1 21.591771 19.748571c-105.647543 115.5072-148.392229 237.626514-129.082514 367.323429 18.783086 126.098286 123.231086 191.780571 318.815085 196.900571a14.628571 14.628571 0 0 1-0.760685 29.257143c-208.310857-5.441829-325.778286-79.345371-346.989715-221.827657-20.655543-138.883657 25.102629-269.663086 136.426058-391.402057z" fill="#333333" p-id="5247"></path><path d="M101.141943 383.297829l-15.711086-9.888915a20.0704 20.0704 0 0 1 0-33.938285l15.711086-9.888915a58.514286 58.514286 0 0 0 18.285714-18.285714l9.888914-15.711086a20.0704 20.0704 0 0 1 33.938286 0l9.888914 15.711086a58.514286 58.514286 0 0 0 18.285715 18.285714l15.711085 9.888915a20.0704 20.0704 0 0 1 0 33.938285l-15.711085 9.888915a58.514286 58.514286 0 0 0-18.285715 18.285714l-9.888914 15.711086a20.0704 20.0704 0 0 1-33.938286 0l-9.888914-15.711086a58.514286 58.514286 0 0 0-18.285714-18.285714zM1066.627657 383.297829l-15.711086-9.888915a20.0704 20.0704 0 0 1 0-33.938285l15.711086-9.888915a58.514286 58.514286 0 0 0 18.285714-18.285714l9.888915-15.711086a20.0704 20.0704 0 0 1 33.938285 0l9.888915 15.711086a58.514286 58.514286 0 0 0 18.285714 18.285714l15.711086 9.888915a20.0704 20.0704 0 0 1 0 33.938285l-15.711086 9.888915a58.514286 58.514286 0 0 0-18.285714 18.285714l-9.888915 15.711086a20.0704 20.0704 0 0 1-33.938285 0l-9.888915-15.711086a58.514286 58.514286 0 0 0-18.285714-18.285714z" fill="#FFC41D" p-id="5248"></path><path d="M971.629714 409.541486a14.628571 14.628571 0 1 0-21.591771 19.748571c105.618286 115.5072 148.362971 237.626514 129.053257 367.323429-18.753829 126.098286-123.201829 191.780571-318.785829 196.900571a14.628571 14.628571 0 0 0 0.760686 29.257143c208.2816-5.441829 325.749029-79.345371 346.989714-221.827657 20.655543-138.883657-25.102629-269.663086-136.426057-391.402057z" fill="#333333" p-id="5249"></path><path d="M103.336229 473.4976l2.633142 0.4096 117.028572 29.257143a14.628571 14.628571 0 0 1-4.5056 28.789028l-2.633143-0.4096-117.028571-29.257142a14.628571 14.628571 0 0 1 4.5056-28.789029zM217.614629 546.728229a14.628571 14.628571 0 0 1 6.202514 28.4672l-2.574629 0.585142-117.028571 14.628572a14.628571 14.628571 0 0 1-6.202514-28.496457l2.574628-0.585143 117.028572-14.628572z" fill="#333333" p-id="5250"></path><path d="M1125.463771 473.4976l-2.633142 0.4096-117.028572 29.257143a14.628571 14.628571 0 0 0 4.5056 28.789028l2.633143-0.4096 117.028571-29.257142a14.628571 14.628571 0 0 0-4.5056-28.789029zM1011.185371 546.728229a14.628571 14.628571 0 0 0-6.202514 28.4672l2.574629 0.585142 117.028571 14.628572a14.628571 14.628571 0 0 0 6.202514-28.496457l-2.574628-0.585143-117.028572-14.628572z" fill="#333333" p-id="5251"></path><path d="M394.971429 531.982629a43.885714 43.885714 0 1 0 0-87.771429 43.885714 43.885714 0 0 0 0 87.771429z" fill="#333333" p-id="5252"></path><path d="M409.512229 517.354057a14.628571 14.628571 0 1 0 0-29.257143 14.628571 14.628571 0 0 0 0 29.257143zM383.093029 481.631086c-6.992457 4.037486-8.630857 14.336-12.668343 7.314285a14.628571 14.628571 0 1 1 25.336685-14.628571c4.037486 7.021714-5.675886 3.2768-12.668342 7.314286z" fill="#FFFFFF" p-id="5253"></path><path d="M804.571429 531.982629a43.885714 43.885714 0 1 1 0-87.771429 43.885714 43.885714 0 0 1 0 87.771429z" fill="#333333" p-id="5254"></path><path d="M790.030629 517.354057a14.628571 14.628571 0 1 1 0-29.257143 14.628571 14.628571 0 0 1 0 29.257143zM816.449829 481.631086c6.992457 4.037486 8.630857 14.336 12.668342 7.314285a14.628571 14.628571 0 1 0-25.336685-14.628571c-4.037486 7.021714 5.675886 3.2768 12.668343 7.314286z" fill="#FFFFFF" p-id="5255"></path><path d="M321.828571 634.382629a58.514286 58.514286 0 1 0 0-117.028572 58.514286 58.514286 0 0 0 0 117.028572zM906.971429 634.382629a58.514286 58.514286 0 1 0 0-117.028572 58.514286 58.514286 0 0 0 0 117.028572z" fill="#F6B2B1" p-id="5256"></path><path d="M614.4 517.354057c16.149943 0 25.1904-6.5536 25.1904-14.628571s-9.040457-14.628571-25.1904-14.628572-24.049371 6.5536-24.049371 14.628572 7.899429 14.628571 24.049371 14.628571z" fill="#333333" p-id="5257"></path><path d="M629.087086 525.458286a58.514286 58.514286 0 0 1-116.882286 4.388571l-0.146286-4.388571v-18.2272a14.628571 14.628571 0 0 1 29.023086-2.633143l0.234057 2.633143v18.256457a29.257143 29.257143 0 0 0 58.309486 3.393828l0.2048-3.393828v-18.256457a14.628571 14.628571 0 0 1 29.023086-2.633143l0.234057 2.633143v18.256457z" fill="#333333" p-id="5258"></path><path d="M716.858514 525.458286a58.514286 58.514286 0 0 1-116.882285 4.388571l-0.146286-4.388571v-18.2272a14.628571 14.628571 0 0 1 29.023086-2.633143l0.234057 2.633143v18.256457a29.257143 29.257143 0 0 0 58.309485 3.393828l0.2048-3.393828v-18.256457a14.628571 14.628571 0 0 1 29.023086-2.633143l0.234057 2.633143v18.256457z" fill="#333333" p-id="5259"></path><path d="M390.641371 276.714057c-9.947429 3.364571-16.091429 21.7088-22.176914 46.8992-6.056229 25.1904-10.971429 50.556343-2.223543 54.506057 8.718629 3.949714 71.914057-25.921829 74.5472-40.608914 2.6624-14.716343-40.170057-64.160914-50.146743-60.796343zM840.235886 276.714057c9.947429 3.364571 16.091429 21.7088 22.147657 46.8992 6.085486 25.1904 11.000686 50.556343 2.2528 54.506057s-71.914057-25.921829-74.576457-40.608914c-2.633143-14.716343 40.199314-64.160914 50.176-60.796343z" fill="#F6B2B1" p-id="5260"></path><path d="M213.4016 367.147886a20.0704 20.0704 0 0 1-6.261029 6.261028l-15.711085 9.888915a58.514286 58.514286 0 0 0-18.285715 18.285714l-9.888914 15.711086a20.0704 20.0704 0 0 1-33.938286 0l-9.888914-15.711086a58.514286 58.514286 0 0 0-18.285714-18.285714l-15.711086-9.888915a20.0704 20.0704 0 0 1 0-33.938285l15.711086-9.888915a58.514286 58.514286 0 0 0 18.285714-18.285714l9.888914-15.711086a20.0704 20.0704 0 0 1 33.938286 0l9.888914 15.711086a58.514286 58.514286 0 0 0 18.285715 18.285714l15.711085 9.888915c9.362286 5.909943 12.170971 18.285714 6.261029 27.677257z m-34.2016-10.737372l-3.364571-2.077257a87.771429 87.771429 0 0 1-23.7568-22.059886l-3.6864-5.383314L146.285714 323.496229l-2.106514 3.393828a87.771429 87.771429 0 0 1-22.059886 23.7568l-5.383314 3.6864-3.364571 2.077257 3.364571 2.135772a87.771429 87.771429 0 0 1 23.7568 22.059885l3.6864 5.383315 2.106514 3.335314 2.106515-3.335314a87.771429 87.771429 0 0 1 22.059885-23.7568l5.383315-3.6864 3.364571-2.135772z" fill="#333333" p-id="5261"></path><path d="M270.248229 84.143543a14.628571 14.628571 0 0 1 16.969142 7.870171l0.936229 2.486857 16.062171 59.947886a14.628571 14.628571 0 0 1-27.355428 10.0352l-0.877714-2.486857-16.091429-59.947886a14.628571 14.628571 0 0 1 10.357029-17.905371zM174.548114 85.752686a14.628571 14.628571 0 0 1 18.549029 2.808685l1.550628 2.135772 81.188572 134.026971a14.628571 14.628571 0 0 1-23.464229 17.290972L250.792229 239.908571 169.632914 105.852343a14.628571 14.628571 0 0 1 4.9152-20.099657zM163.781486 165.975771l56.027428 49.239772a14.628571 14.628571 0 0 1-17.173943 23.552l-2.135771-1.550629-56.027429-49.239771a14.628571 14.628571 0 0 1 17.173943-23.552l2.135772 1.550628z" fill="#FFC41D" p-id="5262"></path><path d="M938.569143 84.143543a14.628571 14.628571 0 0 0-16.9984 7.870171l-0.906972 2.486857-16.062171 59.947886a14.628571 14.628571 0 0 0 27.355429 10.0352l0.877714-2.486857 16.091428-59.947886a14.628571 14.628571 0 0 0-10.357028-17.905371zM1034.24 85.752686a14.628571 14.628571 0 0 0-18.519771 2.808685l-1.550629 2.135772-81.188571 134.026971a14.628571 14.628571 0 0 0 23.464228 17.290972l1.579886-2.135772 81.159314-134.026971a14.628571 14.628571 0 0 0-4.9152-20.099657zM1045.035886 165.975771l-56.027429 49.239772a14.628571 14.628571 0 0 0 17.173943 23.552l2.135771-1.550629 56.027429-49.239771a14.628571 14.628571 0 0 0-17.173943-23.552l-2.135771 1.550628z" fill="#FFC41D" p-id="5263"></path><path d="M1178.887314 367.147886a20.0704 20.0704 0 0 1-6.261028 6.261028l-15.711086 9.888915a58.514286 58.514286 0 0 0-18.285714 18.285714l-9.888915 15.711086a20.0704 20.0704 0 0 1-33.938285 0l-9.888915-15.711086a58.514286 58.514286 0 0 0-18.285714-18.285714l-15.711086-9.888915a20.0704 20.0704 0 0 1 0-33.938285l15.711086-9.888915a58.514286 58.514286 0 0 0 18.285714-18.285714l9.888915-15.711086a20.0704 20.0704 0 0 1 33.938285 0l9.888915 15.711086a58.514286 58.514286 0 0 0 18.285714 18.285714l15.711086 9.888915c9.362286 5.909943 12.170971 18.285714 6.261028 27.677257z m-34.2016-10.737372l-3.364571-2.077257a87.771429 87.771429 0 0 1-23.7568-22.059886l-3.6864-5.383314-2.106514-3.393828-2.106515 3.393828a87.771429 87.771429 0 0 1-22.059885 23.7568l-5.383315 3.6864-3.364571 2.077257 3.364571 2.135772a87.771429 87.771429 0 0 1 23.7568 22.059885l3.6864 5.383315 2.106515 3.335314 2.106514-3.335314a87.771429 87.771429 0 0 1 22.059886-23.7568l5.383314-3.6864 3.364571-2.135772z" fill="#333333" p-id="5264"></path></svg>