<?xml version="1.0" standalone="no"?><!DOCTYPE svg PUBLIC "-//W3C//DTD SVG 1.1//EN" "http://www.w3.org/Graphics/SVG/1.1/DTD/svg11.dtd"><svg t="1609466494202" class="icon" viewBox="0 0 1024 1024" version="1.1" xmlns="http://www.w3.org/2000/svg" p-id="5834" xmlns:xlink="http://www.w3.org/1999/xlink" width="64" height="64"><defs><style type="text/css"></style></defs><path d="M359.68 50.7648c140.7488 0 254.848 114.1248 254.848 254.8736 0 5.5552-0.1792 11.1104-0.5376 16.6656-10.7776 164.3008-0.5888 283.5712 30.5408 357.8112 46.2848 110.336 165.6576 185.088 358.144 224.256-118.7328 60.3136-254.464 80.9984-407.1936 62.08-229.12-28.3904-371.1232 85.9648-520.704-177.0496C11.6992 678.4768-11.4688 539.2128 5.248 371.584A356.1728 356.1728 0 0 1 359.68 50.7648z" fill="#FFFFFF" p-id="5835"></path><path d="M359.68 50.7648c140.7488 0 254.848 114.1248 254.848 254.8736 0 5.5552-0.1792 11.1104-0.5376 16.6656-10.7776 164.3008-0.5888 283.5712 30.5408 357.8112 46.2848 110.336 165.6576 185.088 358.144 224.256-115.2512 58.5216-246.5024 79.744-393.7536 63.6416l-13.44-1.5616c-229.12-28.3904-371.1232 85.9648-520.704-177.0496C11.6992 678.4768-11.4688 539.2128 5.248 371.584A356.1728 356.1728 0 0 1 359.68 50.7648z m0 21.3504a334.848 334.848 0 0 0-333.184 301.568c-16.3328 163.5328 6.144 298.4192 66.816 405.1712a591.36 591.36 0 0 0 34.4064 53.9648c73.2928 101.4784 126.3616 118.8096 278.912 111.36l36.4288-1.9712c63.1296-3.2512 101.888-3.072 148.0448 2.2272l6.9888 0.8448c121.6512 15.0784 231.7568 4.3776 330.6496-31.9232l7.168-2.7136-9.8048-2.6624c-153.8048-42.88-253.824-113.664-298.4704-213.2224l-2.7648-6.4c-32.7168-77.952-43.136-200.1152-32.1792-367.4368a233.5232 233.5232 0 0 0-233.0368-248.8064z" fill="#000000" p-id="5836"></path><path d="M99.5328 630.7072c14.592 107.3664 41.8816 164.1728 81.792 170.496 59.904 9.472 343.3472 19.3024 359.0912 0 10.496-12.8512 5.2736-73.0112-15.6928-180.48a1297.6128 1297.6128 0 0 1-210.0736 22.0416 1373.3632 1373.3632 0 0 1-215.1168-12.032z" fill="#FFDFDF" p-id="5837"></path><path d="M128 426.6752m0-42.6752a42.6752 42.6752 0 1 0 0 85.3504 42.6752 42.6752 0 1 0 0-85.3504Z" fill="#FFDDDD" p-id="5838"></path><path d="M469.3248 426.6752m0-42.6752a42.6752 42.6752 0 1 0 0 85.3504 42.6752 42.6752 0 1 0 0-85.3504Z" fill="#FFDDDD" p-id="5839"></path><path d="M181.3248 309.3248m-32 0a32 32 0 1 0 64 0 32 32 0 1 0-64 0Z" fill="#000000" p-id="5840"></path><path d="M437.3248 309.3248m-32 0a32 32 0 1 0 64 0 32 32 0 1 0-64 0Z" fill="#000000" p-id="5841"></path><path d="M845.312 669.568a28.3136 28.3136 0 0 0-39.9616 0l-1.408 1.4336a5.5552 5.5552 0 0 1-7.8848 0l-1.408-1.4336a28.3136 28.3136 0 0 0-39.936 0c-11.008 11.008-12.9536 38.9632 8.448 61.4912 12.032 12.6464 24.9856 19.1488 31.872 21.9904 3.1744 1.28 6.7584 1.28 9.9328 0 6.912-2.816 19.8656-9.344 31.872-22.016 21.4016-22.5024 19.456-50.4576 8.448-61.44z" fill="#E82F46" p-id="5842"></path><path d="M747.1616 662.016c-17.2544 17.2544-14.6944 52.224 8.2688 76.3904 11.0848 11.648 23.552 19.584 35.584 24.4992a23.7568 23.7568 0 0 0 17.9968 0 103.1168 103.1168 0 0 0 35.5584-24.4992c22.9632-24.1664 25.5232-59.1104 8.2688-76.3648l-2.6112-2.3808a39.0144 39.0144 0 0 0-49.8176 0l-0.4096 0.3584 2.2016 2.0224a39.0144 39.0144 0 0 0-52.4288-2.3808l-2.6112 2.3808z m90.5984 15.104c8.448 8.448 6.8352 30.2592-8.6528 46.592-8.8064 9.2672-18.7904 15.616-28.1856 19.456a2.432 2.432 0 0 1-1.8432 0 82.1248 82.1248 0 0 1-28.16-19.456c-15.5136-16.3072-17.1008-38.144-8.6784-46.592a17.664 17.664 0 0 1 24.8832 0l1.408 1.408a16.2304 16.2304 0 0 0 22.9376 0l1.408-1.408a17.664 17.664 0 0 1 24.8832 0zM294.9888 451.1232c22.5024 0 44.9536-4.9152 67.2512-14.6944a10.6752 10.6752 0 1 0-8.5504-19.5328c-19.6608 8.6272-39.2192 12.9024-58.7008 12.9024-19.4816 0-39.0144-4.2752-58.7008-12.9024a10.6752 10.6752 0 0 0-8.5504 19.5328c22.3232 9.7792 44.7488 14.6944 67.2512 14.6944zM608.1536 588.4416l6.0928 20.48c-99.84 29.6704-199.68 44.5184-299.5968 44.5184-94.0032 0-188.0064-13.1584-281.9584-39.4496l-17.6128-5.0944 6.0928-20.4544c97.8688 29.1072 195.6864 43.648 293.4784 43.648 92.0576 0 184.1152-12.8768 276.224-38.656l17.28-4.992z" fill="#000000" p-id="5843"></path><path d="M192 608v53.3248a32 32 0 1 1-64 0V608M490.6752 608v53.3248a32 32 0 1 1-64 0V608" fill="#FFFFFF" p-id="5844"></path><path d="M202.6752 661.3248a42.6752 42.6752 0 0 1-85.248 3.2l-0.1024-3.2V608a10.6752 10.6752 0 0 1 21.1712-1.92l0.1792 1.92v53.3248a21.3248 21.3248 0 0 0 42.496 2.5088l0.1536-2.5088V608a10.6752 10.6752 0 0 1 21.1712-1.92l0.1792 1.92v53.3248zM501.3248 661.3248a42.6752 42.6752 0 0 1-85.1968 3.2l-0.128-3.2V608a10.6752 10.6752 0 0 1 21.1712-1.92l0.1536 1.92v53.3248a21.3248 21.3248 0 0 0 42.5216 2.5088l0.1536-2.5088V608a10.6752 10.6752 0 0 1 21.1712-1.92l0.1536 1.92v53.3248z" fill="#000000" p-id="5845"></path><path d="M232.0128 716.5184h173.312c-5.888 44.3136-34.7648 66.4832-86.656 66.4832-51.8912 0-80.768-22.1696-86.656-66.4832z" fill="#FFC9C9" p-id="5846"></path></svg>