<?xml version="1.0" standalone="no"?><!DOCTYPE svg PUBLIC "-//W3C//DTD SVG 1.1//EN" "http://www.w3.org/Graphics/SVG/1.1/DTD/svg11.dtd"><svg t="1612142308570" class="icon" viewBox="0 0 1024 1024" version="1.1" xmlns="http://www.w3.org/2000/svg" p-id="3157" xmlns:xlink="http://www.w3.org/1999/xlink" width="200" height="200"><defs><style type="text/css"></style></defs><path d="M962 386.203c0-40.085-32.495-72.581-72.581-72.581s-72.581 32.495-72.581 72.581c0 19.625 7.865 37.365 20.52 50.428L712.91 704.178 408.922 197.91 148.623 668.261c-4.548-0.892-9.232-1.415-14.043-1.415-40.085 0.001-72.58 32.496-72.58 72.581s32.495 72.581 72.581 72.581 72.581-32.495 72.581-72.581c0-13.86-4.087-26.683-10.83-37.699l215.521-392.774 311.17 517.136 168.096-367.478c39.278-0.925 70.881-32.906 70.881-72.409z" fill="#2c2c2c" p-id="3158"></path></svg>